<svg xmlns="http://www.w3.org/2000/svg" xmlns:xlink="http://www.w3.org/1999/xlink" width="100" zoomAndPan="magnify" viewBox="0 0 75 74.999997" height="100" preserveAspectRatio="xMidYMid meet" version="1.0"><defs><clipPath id="0eab400bc1"><path d="M 8.953125 8.953125 L 65.953125 8.953125 L 65.953125 65.953125 L 8.953125 65.953125 Z M 8.953125 8.953125 " clip-rule="nonzero"/></clipPath></defs><g clip-path="url(#0eab400bc1)"><path fill="#bf9d5e" d="M 65.339844 50.867188 C 65.757812 51.980469 66 53.175781 66.039062 54.425781 C 66.046875 54.546875 66.046875 54.664062 66.046875 54.789062 C 66.046875 61.003906 61.003906 66.046875 54.789062 66.046875 C 29.472656 66.046875 8.953125 45.527344 8.953125 20.210938 C 8.953125 13.996094 13.996094 8.953125 20.210938 8.953125 C 20.335938 8.953125 20.453125 8.953125 20.574219 8.960938 C 21.824219 9 23.023438 9.242188 24.136719 9.660156 L 28.363281 27.957031 C 28.363281 27.964844 28.359375 27.96875 28.351562 27.976562 L 20.601562 31.457031 L 20.578125 31.46875 C 24.132812 42.300781 32.699219 50.867188 43.53125 54.421875 L 43.542969 54.398438 L 47.027344 46.644531 L 65.339844 50.867188 " fill-opacity="1" fill-rule="nonzero"/></g></svg>