<svg xmlns="http://www.w3.org/2000/svg" xmlns:xlink="http://www.w3.org/1999/xlink" width="1000" zoomAndPan="magnify" viewBox="0 0 750 749.999995" height="1000" preserveAspectRatio="xMidYMid meet" version="1.0"><defs><clipPath id="124046d089"><path d="M 80 43.441406 L 669 43.441406 L 669 698 L 80 698 Z M 80 43.441406 " clip-rule="nonzero"/></clipPath></defs><g clip-path="url(#124046d089)"><path fill="#ccaa74" d="M 203.375 277.261719 L 83.621094 109.582031 C 80.558594 105.339844 79.5 100.042969 80.558594 94.980469 C 80.675781 94.273438 81.148438 93.566406 81.734375 93.09375 L 219.976562 259.007812 C 221.863281 261.246094 225.277344 261.597656 227.632812 259.714844 C 229.867188 257.832031 230.222656 254.417969 228.339844 252.0625 L 99.046875 81.554688 C 98.105469 80.378906 98.574219 78.613281 99.988281 77.90625 C 100.929688 77.433594 102.109375 77.789062 102.8125 78.613281 L 244.707031 238.167969 C 246.589844 240.402344 250.003906 240.757812 252.359375 238.871094 L 253.539062 237.8125 C 255.773438 235.929688 256.128906 232.515625 254.242188 230.160156 L 121.773438 62.714844 C 121.066406 61.890625 120.949219 60.714844 121.65625 59.769531 C 122.597656 58.476562 124.363281 58.359375 125.421875 59.535156 L 270.964844 216.265625 C 272.847656 218.5 276.261719 218.855469 278.617188 216.972656 C 280.855469 215.085938 281.210938 211.671875 279.324219 209.316406 L 139.671875 44.464844 C 140.257812 43.992188 140.964844 43.640625 141.789062 43.640625 C 146.972656 43.519531 152.035156 45.523438 155.683594 49.171875 L 299.933594 196.246094 C 299.933594 196.246094 339.851562 237.8125 325.957031 279.027344 C 325.957031 279.027344 318.417969 293.390625 331.84375 311.054688 C 335.375 315.765625 353.507812 335.429688 378.238281 362.160156 L 355.746094 386.417969 C 332.550781 355.800781 315.121094 333.074219 311 328.601562 C 296.046875 312.351562 280.503906 317.296875 280.503906 317.296875 C 237.40625 323.773438 203.375 277.261719 203.375 277.261719 Z M 532.492188 530.898438 C 504.585938 498.988281 460.664062 451.179688 420.863281 408.320312 C 413.679688 415.5 404.613281 425.394531 394.25 437.285156 C 428.871094 482.738281 466.667969 532.3125 492.574219 564.457031 C 507.175781 582.59375 539.910156 625.691406 553.6875 644.414062 C 575.238281 673.734375 598.433594 702.109375 630.226562 696.695312 C 634.113281 695.988281 637.410156 693.28125 638.824219 689.511719 C 649.65625 659.132812 625.753906 631.34375 600.671875 605.082031 C 584.539062 588.246094 547.800781 548.445312 532.492188 530.898438 Z M 668.496094 60.242188 C 668.378906 57.417969 666.964844 54.707031 664.613281 52.824219 C 664.613281 52.824219 664.492188 52.824219 664.492188 52.707031 C 660.84375 49.644531 655.78125 49.171875 652.246094 51.765625 C 649.539062 53.648438 646.359375 56.355469 642.710938 59.769531 C 612.328125 88.738281 625.515625 102.515625 399.195312 357.566406 L 132.371094 645.117188 C 113.058594 668.199219 158.511719 706.46875 178.058594 683.859375 C 178.175781 683.742188 178.292969 683.507812 178.410156 683.390625 C 184.886719 675.144531 363.988281 446 415.800781 396.074219 C 422.042969 390.066406 430.046875 386.535156 438.171875 386.0625 C 440.765625 385.945312 443.589844 385.828125 446.414062 385.710938 C 450.65625 385.59375 454.894531 384.886719 459.015625 383.589844 C 466.316406 381.234375 473.027344 377.113281 478.445312 371.578125 C 530.609375 319.179688 670.5 134.542969 668.96875 69.308594 C 668.96875 68.015625 668.734375 63.894531 668.496094 60.242188 Z M 668.496094 60.242188 " fill-opacity="1" fill-rule="nonzero"/></g></svg>